<svg width="2230" height="550" viewBox="0 0 2230 550" fill="none" xmlns="http://www.w3.org/2000/svg">
<path d="M550 275C550 426.878 426.878 550 275 550C123.122 550 0 426.878 0 275C0 123.122 123.122 0 275 0C426.878 0 550 123.122 550 275Z" fill="url(#paint0_linear_2_8)"/>
<path d="M223.648 322.6C223.648 317.8 222.448 314.2 220.048 311.8C217.648 309.133 214.448 307.8 210.448 307.8C201.648 307.8 197.248 312.867 197.248 323V408.6C194.848 409.133 191.115 409.8 186.048 410.6C181.248 411.4 176.048 411.8 170.448 411.8C159.782 411.8 151.515 410.067 145.648 406.6C140.048 402.867 137.248 395 137.248 383V320.2C132.715 317.8 128.315 314.6 124.048 310.6C120.048 306.333 116.315 301.4 112.848 295.8C109.382 290.2 106.582 283.8 104.448 276.6C102.582 269.4 101.648 261.4 101.648 252.6C101.648 233.667 105.648 216.333 113.648 200.6C121.648 184.867 132.982 171.4 147.648 160.2C162.315 149 179.782 140.333 200.048 134.2C220.315 128.067 242.715 125 267.248 125C296.315 125 322.448 128.867 345.648 136.6C368.848 144.067 388.448 154.467 404.448 167.8C420.715 181.133 433.115 197 441.648 215.4C450.182 233.533 454.448 253.4 454.448 275C454.448 284.867 453.248 293.267 450.848 300.2C448.715 307.133 445.782 312.733 442.048 317C438.315 321.267 433.915 324.467 428.848 326.6C423.782 328.467 418.315 329.4 412.448 329.4C406.315 329.4 400.448 327.933 394.848 325C389.248 321.8 385.115 318.2 382.448 314.2C384.582 308.067 386.048 301.667 386.848 295C387.915 288.333 388.448 282.2 388.448 276.6C388.448 264.333 385.782 252.467 380.448 241C375.382 229.533 367.782 219.4 357.648 210.6C347.515 201.8 334.982 194.733 320.048 189.4C305.115 184.067 287.915 181.4 268.448 181.4C251.915 181.4 237.382 183.4 224.848 187.4C212.582 191.133 202.182 196.333 193.648 203C185.382 209.667 179.115 217.267 174.848 225.8C170.848 234.333 168.848 243.133 168.848 252.2C168.848 256.2 169.648 260.2 171.248 264.2C177.382 260.467 183.782 257.933 190.448 256.6C197.115 255.267 204.048 254.6 211.248 254.6C221.915 254.6 231.115 256.467 238.848 260.2C246.582 263.667 252.715 267.933 257.248 273C262.315 267.667 269.115 263.267 277.648 259.8C286.448 256.333 296.315 254.6 307.248 254.6C316.048 254.6 324.048 255.8 331.248 258.2C338.715 260.333 345.115 263.8 350.448 268.6C356.048 273.4 360.315 279.667 363.248 287.4C366.448 294.867 368.048 303.8 368.048 314.2V409C365.648 409.533 361.915 410.2 356.848 411C352.048 411.8 346.848 412.2 341.248 412.2C330.582 412.2 322.315 410.467 316.448 407C310.848 403.267 308.048 395.4 308.048 383.4V321.4C308.048 312.333 303.782 307.8 295.248 307.8C291.515 307.8 288.448 308.733 286.048 310.6C283.648 312.467 282.182 315.933 281.648 321V408.6C279.248 409.133 275.515 409.8 270.448 410.6C265.648 411.4 260.448 411.8 254.848 411.8C244.182 411.8 236.315 410.067 231.248 406.6C226.182 402.867 223.648 395 223.648 383V322.6Z" fill="url(#paint1_linear_2_8)"/>
<path d="M745.734 160.6C756.668 160.6 767.334 162.2 777.734 165.4C788.401 168.333 797.601 172.867 805.334 179C813.334 173.667 822.268 169.267 832.134 165.8C842.268 162.333 854.401 160.6 868.534 160.6C878.668 160.6 888.534 161.933 898.134 164.6C908.001 167.267 916.668 171.533 924.134 177.4C931.868 183 938.001 190.6 942.534 200.2C947.068 209.533 949.334 221 949.334 234.6V360.6C946.668 361.4 942.401 362.2 936.534 363C930.934 363.8 925.068 364.2 918.934 364.2C913.068 364.2 907.734 363.8 902.934 363C898.401 362.2 894.534 360.6 891.334 358.2C888.134 355.8 885.601 352.6 883.734 348.6C882.134 344.333 881.334 338.867 881.334 332.2V236.6C881.334 228.6 879.068 222.867 874.534 219.4C870.001 215.667 863.868 213.8 856.134 213.8C852.401 213.8 848.401 214.733 844.134 216.6C839.868 218.2 836.668 219.933 834.534 221.8C834.801 222.867 834.934 223.933 834.934 225C834.934 225.8 834.934 226.6 834.934 227.4V360.6C832.001 361.4 827.601 362.2 821.734 363C816.134 363.8 810.401 364.2 804.534 364.2C798.668 364.2 793.334 363.8 788.534 363C784.001 362.2 780.134 360.6 776.934 358.2C773.734 355.8 771.201 352.6 769.334 348.6C767.734 344.333 766.934 338.867 766.934 332.2V236.6C766.934 228.6 764.401 222.867 759.334 219.4C754.534 215.667 748.668 213.8 741.734 213.8C736.934 213.8 732.801 214.6 729.334 216.2C725.868 217.533 722.934 218.867 720.534 220.2V360.6C717.868 361.4 713.601 362.2 707.734 363C702.134 363.8 696.268 364.2 690.134 364.2C684.268 364.2 678.934 363.8 674.134 363C669.601 362.2 665.734 360.6 662.534 358.2C659.334 355.8 656.801 352.6 654.934 348.6C653.334 344.333 652.534 338.867 652.534 332.2V211.4C652.534 204.2 654.001 198.467 656.934 194.2C660.134 189.933 664.401 185.933 669.734 182.2C678.801 175.8 690.001 170.6 703.334 166.6C716.934 162.6 731.068 160.6 745.734 160.6Z" fill="white"/>
<path d="M1093.62 367.4C1077.88 367.4 1063.22 365.267 1049.62 361C1036.28 356.467 1024.55 349.8 1014.42 341C1004.55 332.2 996.682 321.133 990.816 307.8C985.216 294.467 982.416 278.867 982.416 261C982.416 243.4 985.216 228.333 990.816 215.8C996.682 203 1004.28 192.6 1013.62 184.6C1022.95 176.333 1033.62 170.333 1045.62 166.6C1057.62 162.6 1069.88 160.6 1082.42 160.6C1096.55 160.6 1109.35 162.733 1120.82 167C1132.55 171.267 1142.55 177.133 1150.82 184.6C1159.35 192.067 1165.88 201 1170.42 211.4C1175.22 221.8 1177.62 233.133 1177.62 245.4C1177.62 254.467 1175.08 261.4 1170.02 266.2C1164.95 271 1157.88 274.067 1148.82 275.4L1050.02 290.2C1052.95 299 1058.95 305.667 1068.02 310.2C1077.08 314.467 1087.48 316.6 1099.22 316.6C1110.15 316.6 1120.42 315.267 1130.02 312.6C1139.88 309.667 1147.88 306.333 1154.02 302.6C1158.28 305.267 1161.88 309 1164.82 313.8C1167.75 318.6 1169.22 323.667 1169.22 329C1169.22 341 1163.62 349.933 1152.42 355.8C1143.88 360.333 1134.28 363.4 1123.62 365C1112.95 366.6 1102.95 367.4 1093.62 367.4ZM1082.42 210.2C1076.02 210.2 1070.42 211.267 1065.62 213.4C1061.08 215.533 1057.35 218.333 1054.42 221.8C1051.48 225 1049.22 228.733 1047.62 233C1046.28 237 1045.48 241.133 1045.22 245.4L1113.62 234.2C1112.82 228.867 1109.88 223.533 1104.82 218.2C1099.75 212.867 1092.28 210.2 1082.42 210.2Z" fill="white"/>
<path d="M1321.15 355C1317.41 358.2 1312.35 360.733 1305.95 362.6C1299.55 364.733 1291.95 365.8 1283.15 365.8C1272.21 365.8 1262.75 364.2 1254.75 361C1246.75 358.067 1241.41 353.8 1238.75 348.2C1235.81 341.8 1232.35 331.667 1228.35 317.8C1224.61 303.933 1220.88 288.733 1217.15 272.2C1213.41 255.667 1209.81 238.867 1206.35 221.8C1203.15 204.733 1200.61 189.667 1198.75 176.6C1202.48 172.867 1207.41 169.667 1213.55 167C1219.95 164.067 1226.88 162.6 1234.35 162.6C1243.68 162.6 1251.28 164.733 1257.15 169C1263.28 173 1267.01 180.067 1268.35 190.2C1271.01 210.467 1273.28 227.267 1275.15 240.6C1277.01 253.667 1278.48 264.467 1279.55 273C1280.88 281.267 1281.81 287.667 1282.35 292.2C1283.15 296.467 1283.81 299.933 1284.35 302.6H1285.95C1286.75 298.333 1288.08 292.2 1289.95 284.2C1292.08 275.933 1294.48 266.6 1297.15 256.2C1299.81 245.8 1302.61 234.6 1305.55 222.6C1308.48 210.333 1311.41 198.2 1314.35 186.2C1319.68 183.267 1324.88 181 1329.95 179.4C1335.28 177.8 1341.81 177 1349.55 177C1358.88 177 1366.88 178.467 1373.55 181.4C1380.21 184.333 1384.48 188.867 1386.35 195C1389.55 206.733 1392.61 218.2 1395.55 229.4C1398.48 240.333 1401.15 250.6 1403.55 260.2C1405.95 269.533 1408.08 277.933 1409.95 285.4C1411.81 292.6 1413.15 298.333 1413.95 302.6H1415.95C1418.88 282.067 1421.68 260.733 1424.35 238.6C1427.28 216.467 1429.95 193.933 1432.35 171C1437.15 168.067 1442.21 165.933 1447.55 164.6C1452.88 163.267 1458.21 162.6 1463.55 162.6C1472.88 162.6 1480.61 164.6 1486.75 168.6C1492.88 172.6 1495.95 179.533 1495.95 189.4C1495.95 193.667 1495.28 200.067 1493.95 208.6C1492.61 217.133 1490.88 226.733 1488.75 237.4C1486.61 248.067 1484.08 259.267 1481.15 271C1478.48 282.733 1475.68 294.067 1472.75 305C1470.08 315.933 1467.41 325.8 1464.75 334.6C1462.35 343.4 1460.21 350.2 1458.35 355C1454.61 358.2 1448.88 360.733 1441.15 362.6C1433.41 364.733 1425.15 365.8 1416.35 365.8C1393.95 365.8 1380.75 360.2 1376.75 349C1375.15 344.2 1373.15 338.2 1370.75 331C1368.35 323.533 1365.81 315.4 1363.15 306.6C1360.48 297.8 1357.95 288.733 1355.55 279.4C1353.15 269.8 1351.15 260.6 1349.55 251.8C1347.68 261.133 1345.41 270.867 1342.75 281C1340.08 290.867 1337.28 300.6 1334.35 310.2C1331.68 319.533 1329.15 328.2 1326.75 336.2C1324.35 343.933 1322.48 350.2 1321.15 355Z" fill="white"/>
<path d="M1727.95 263.8C1727.95 280.333 1725.42 295.133 1720.35 308.2C1715.29 321 1708.09 331.8 1698.75 340.6C1689.69 349.4 1678.75 356.067 1665.95 360.6C1653.15 365.133 1638.89 367.4 1623.15 367.4C1607.42 367.4 1593.15 365 1580.35 360.2C1567.55 355.4 1556.49 348.6 1547.15 339.8C1538.09 330.733 1531.02 319.8 1525.95 307C1520.89 294.2 1518.35 279.8 1518.35 263.8C1518.35 248.067 1520.89 233.8 1525.95 221C1531.02 208.2 1538.09 197.4 1547.15 188.6C1556.49 179.533 1567.55 172.6 1580.35 167.8C1593.15 163 1607.42 160.6 1623.15 160.6C1638.89 160.6 1653.15 163.133 1665.95 168.2C1678.75 173 1689.69 179.933 1698.75 189C1708.09 197.8 1715.29 208.6 1720.35 221.4C1725.42 234.2 1727.95 248.333 1727.95 263.8ZM1587.95 263.8C1587.95 280.067 1591.02 292.6 1597.15 301.4C1603.55 309.933 1612.35 314.2 1623.55 314.2C1634.75 314.2 1643.29 309.8 1649.15 301C1655.29 292.2 1658.35 279.8 1658.35 263.8C1658.35 247.8 1655.29 235.533 1649.15 227C1643.02 218.2 1634.35 213.8 1623.15 213.8C1611.95 213.8 1603.29 218.2 1597.15 227C1591.02 235.533 1587.95 247.8 1587.95 263.8Z" fill="white"/>
<path d="M1829.13 360.6C1826.46 361.4 1822.19 362.2 1816.33 363C1810.73 363.8 1804.86 364.2 1798.73 364.2C1792.86 364.2 1787.53 363.8 1782.73 363C1778.19 362.2 1774.33 360.6 1771.13 358.2C1767.93 355.8 1765.39 352.6 1763.53 348.6C1761.93 344.333 1761.13 338.867 1761.13 332.2V212.2C1761.13 206.067 1762.19 200.867 1764.33 196.6C1766.73 192.067 1770.06 188.067 1774.33 184.6C1778.59 181.133 1783.79 178.067 1789.93 175.4C1796.33 172.467 1803.13 169.933 1810.33 167.8C1817.53 165.667 1824.99 164.067 1832.73 163C1840.46 161.667 1848.19 161 1855.93 161C1868.73 161 1878.86 163.533 1886.33 168.6C1893.79 173.4 1897.53 181.4 1897.53 192.6C1897.53 196.333 1896.99 200.067 1895.93 203.8C1894.86 207.267 1893.53 210.467 1891.93 213.4C1886.33 213.4 1880.59 213.667 1874.73 214.2C1868.86 214.733 1863.13 215.533 1857.53 216.6C1851.93 217.667 1846.59 218.867 1841.53 220.2C1836.73 221.267 1832.59 222.6 1829.13 224.2V360.6Z" fill="white"/>
<path d="M1994.78 360.6C1991.85 361.133 1987.45 361.8 1981.58 362.6C1975.98 363.667 1970.25 364.2 1964.38 364.2C1958.51 364.2 1953.18 363.8 1948.38 363C1943.85 362.2 1939.98 360.6 1936.78 358.2C1933.58 355.8 1931.05 352.6 1929.18 348.6C1927.58 344.333 1926.78 338.867 1926.78 332.2V100.2C1929.71 99.6667 1933.98 99 1939.58 98.2C1945.45 97.1333 1951.31 96.6 1957.18 96.6C1963.05 96.6 1968.25 97 1972.78 97.8C1977.58 98.6 1981.58 100.2 1984.78 102.6C1987.98 105 1990.38 108.333 1991.98 112.6C1993.85 116.6 1994.78 121.933 1994.78 128.6V360.6Z" fill="white"/>
<path d="M2029.29 263.8C2029.29 246.2 2031.96 231 2037.29 218.2C2042.62 205.133 2049.96 194.333 2059.29 185.8C2068.89 177.267 2079.96 171 2092.49 167C2105.29 162.733 2119.02 160.6 2133.69 160.6C2139.02 160.6 2144.22 161.133 2149.29 162.2C2154.36 163 2158.49 164.067 2161.69 165.4V100.6C2164.36 99.8 2168.62 99 2174.49 98.2C2180.36 97.1333 2186.36 96.6 2192.49 96.6C2198.36 96.6 2203.56 97 2208.09 97.8C2212.89 98.6 2216.89 100.2 2220.09 102.6C2223.29 105 2225.69 108.333 2227.29 112.6C2228.89 116.6 2229.69 121.933 2229.69 128.6V318.2C2229.69 330.733 2223.82 340.733 2212.09 348.2C2204.36 353.267 2194.36 357.667 2182.09 361.4C2169.82 365.4 2155.69 367.4 2139.69 367.4C2122.36 367.4 2106.76 365 2092.89 360.2C2079.29 355.4 2067.69 348.467 2058.09 339.4C2048.76 330.333 2041.56 319.533 2036.49 307C2031.69 294.2 2029.29 279.8 2029.29 263.8ZM2142.89 213.8C2128.49 213.8 2117.42 217.933 2109.69 226.2C2101.96 234.467 2098.09 247 2098.09 263.8C2098.09 280.333 2101.69 292.867 2108.89 301.4C2116.09 309.667 2126.49 313.8 2140.09 313.8C2144.89 313.8 2149.16 313.133 2152.89 311.8C2156.89 310.2 2159.96 308.467 2162.09 306.6V218.6C2156.76 215.4 2150.36 213.8 2142.89 213.8Z" fill="white"/>
<defs>
<linearGradient id="paint0_linear_2_8" x1="1114.85" y1="0" x2="1114.85" y2="550" gradientUnits="userSpaceOnUse">
<stop stop-color="#FB1FFF"/>
<stop offset="1" stop-color="#FF5AB3"/>
</linearGradient>
<linearGradient id="paint1_linear_2_8" x1="1114.85" y1="62" x2="1114.85" y2="612" gradientUnits="userSpaceOnUse">
<stop stop-color="white"/>
<stop offset="1" stop-color="white"/>
</linearGradient>
</defs>
</svg>
