<svg width="570" height="570" viewBox="0 0 570 570" fill="none" xmlns="http://www.w3.org/2000/svg">
<g filter="url(#filter0_d_2_7)">
<path d="M560 275C560 426.878 436.878 550 285 550C133.122 550 10 426.878 10 275C10 123.122 133.122 0 285 0C436.878 0 560 123.122 560 275Z" fill="url(#paint0_linear_2_7)"/>
<path d="M233.648 322.6C233.648 317.8 232.448 314.2 230.048 311.8C227.648 309.133 224.448 307.8 220.448 307.8C211.648 307.8 207.248 312.867 207.248 323V408.6C204.848 409.133 201.115 409.8 196.048 410.6C191.248 411.4 186.048 411.8 180.448 411.8C169.782 411.8 161.515 410.067 155.648 406.6C150.048 402.867 147.248 395 147.248 383V320.2C142.715 317.8 138.315 314.6 134.048 310.6C130.048 306.333 126.315 301.4 122.848 295.8C119.382 290.2 116.582 283.8 114.448 276.6C112.582 269.4 111.648 261.4 111.648 252.6C111.648 233.667 115.648 216.333 123.648 200.6C131.648 184.867 142.982 171.4 157.648 160.2C172.315 149 189.782 140.333 210.048 134.2C230.315 128.067 252.715 125 277.248 125C306.315 125 332.448 128.867 355.648 136.6C378.848 144.067 398.448 154.467 414.448 167.8C430.715 181.133 443.115 197 451.648 215.4C460.182 233.533 464.448 253.4 464.448 275C464.448 284.867 463.248 293.267 460.848 300.2C458.715 307.133 455.782 312.733 452.048 317C448.315 321.267 443.915 324.467 438.848 326.6C433.782 328.467 428.315 329.4 422.448 329.4C416.315 329.4 410.448 327.933 404.848 325C399.248 321.8 395.115 318.2 392.448 314.2C394.582 308.067 396.048 301.667 396.848 295C397.915 288.333 398.448 282.2 398.448 276.6C398.448 264.333 395.782 252.467 390.448 241C385.382 229.533 377.782 219.4 367.648 210.6C357.515 201.8 344.982 194.733 330.048 189.4C315.115 184.067 297.915 181.4 278.448 181.4C261.915 181.4 247.382 183.4 234.848 187.4C222.582 191.133 212.182 196.333 203.648 203C195.382 209.667 189.115 217.267 184.848 225.8C180.848 234.333 178.848 243.133 178.848 252.2C178.848 256.2 179.648 260.2 181.248 264.2C187.382 260.467 193.782 257.933 200.448 256.6C207.115 255.267 214.048 254.6 221.248 254.6C231.915 254.6 241.115 256.467 248.848 260.2C256.582 263.667 262.715 267.933 267.248 273C272.315 267.667 279.115 263.267 287.648 259.8C296.448 256.333 306.315 254.6 317.248 254.6C326.048 254.6 334.048 255.8 341.248 258.2C348.715 260.333 355.115 263.8 360.448 268.6C366.048 273.4 370.315 279.667 373.248 287.4C376.448 294.867 378.048 303.8 378.048 314.2V409C375.648 409.533 371.915 410.2 366.848 411C362.048 411.8 356.848 412.2 351.248 412.2C340.582 412.2 332.315 410.467 326.448 407C320.848 403.267 318.048 395.4 318.048 383.4V321.4C318.048 312.333 313.782 307.8 305.248 307.8C301.515 307.8 298.448 308.733 296.048 310.6C293.648 312.467 292.182 315.933 291.648 321V408.6C289.248 409.133 285.515 409.8 280.448 410.6C275.648 411.4 270.448 411.8 264.848 411.8C254.182 411.8 246.315 410.067 241.248 406.6C236.182 402.867 233.648 395 233.648 383V322.6Z" fill="url(#paint1_linear_2_7)"/>
</g>
<defs>
<filter id="filter0_d_2_7" x="0" y="0" width="570" height="570" filterUnits="userSpaceOnUse" color-interpolation-filters="sRGB">
<feFlood flood-opacity="0" result="BackgroundImageFix"/>
<feColorMatrix in="SourceAlpha" type="matrix" values="0 0 0 0 0 0 0 0 0 0 0 0 0 0 0 0 0 0 127 0" result="hardAlpha"/>
<feOffset dy="10"/>
<feGaussianBlur stdDeviation="5"/>
<feComposite in2="hardAlpha" operator="out"/>
<feColorMatrix type="matrix" values="0 0 0 0 0 0 0 0 0 0 0 0 0 0 0 0 0 0 0.25 0"/>
<feBlend mode="normal" in2="BackgroundImageFix" result="effect1_dropShadow_2_7"/>
<feBlend mode="normal" in="SourceGraphic" in2="effect1_dropShadow_2_7" result="shape"/>
</filter>
<linearGradient id="paint0_linear_2_7" x1="285" y1="0" x2="285" y2="550" gradientUnits="userSpaceOnUse">
<stop stop-color="#FB1FFF"/>
<stop offset="1" stop-color="#FF5AB3"/>
</linearGradient>
<linearGradient id="paint1_linear_2_7" x1="285" y1="62" x2="285" y2="612" gradientUnits="userSpaceOnUse">
<stop stop-color="white"/>
<stop offset="1" stop-color="white"/>
</linearGradient>
</defs>
</svg>
