<?xml version="1.0" encoding="utf-8"?><!-- Uploaded to: SVG Repo, www.svgrepo.com, Generator: SVG Repo Mixer Tools -->
<svg fill="#000000" width="800px" height="800px" viewBox="0 0 24 24" xmlns="http://www.w3.org/2000/svg" id="sign-in-alt" class="icon glyph"><path d="M22,12A10,10,0,0,1,2.05,13H12.59l-2.3,2.29a1,1,0,0,0,0,1.42,1,1,0,0,0,1.42,0l4-4a1,1,0,0,0,.21-.32.37.37,0,0,0,0-.14.85.85,0,0,0,0-.5.37.37,0,0,0,0-.14,1,1,0,0,0-.21-.32l-4-4a1,1,0,1,0-1.42,1.42L12.59,11H2.05a10,10,0,0,1,20,1Z"></path></svg>